Coordinates
version=1
nRows=12
nColumns=24
inDegrees=yes

Units are S.I. units (second, meters, Newtons, ...)
Angles are in degrees.

endheader
time	pelvis_tilt	pelvis_list	pelvis_rotation	pelvis_tx	pelvis_ty	pelvis_tz	hip_flexion_r	hip_adduction_r	hip_rotation_r	knee_angle_r	ankle_angle_r	subtalar_angle_r	mtp_angle_r	hip_flexion_l	hip_adduction_l	hip_rotation_l	knee_angle_l	ankle_angle_l	subtalar_angle_l	mtp_angle_l	lumbar_extension	lumbar_bending	lumbar_rotation
      0.92350000	      1.06774814	      2.80990807	     -5.24601019	     -0.14876146	      1.00632033	      0.26915604	    -12.41700623	     -0.74328584	     -2.62612587	    -11.64881252	     13.92656173	     -2.23956964	      9.19373916	     17.58190749	      2.79248589	    -10.99385244	      1.92841240	     -1.21509208	     -6.94363095	      4.38506080	     -5.51008453	     -1.85142366	     13.23865976
      0.92766667	      1.08398531	      2.83528155	     -5.26836185	     -0.14284050	      1.00579711	      0.26884606	    -12.48998259	     -0.84400029	     -2.61220890	    -12.27248648	     13.97703390	     -2.24428331	      9.18678976	     17.49426467	      2.88973244	    -10.70709188	      1.91806894	     -1.19002997	     -6.92882992	      4.44250707	     -5.48158051	     -1.91230943	     13.25994534
      0.93183333	      1.11591553	      2.89407042	     -5.31244406	     -0.13686724	      1.00532931	      0.26850488	    -12.53460530	     -1.00543488	     -2.67476362	    -12.98385547	     14.06180594	     -1.97226398	      9.19219727	     17.35207566	      3.02865445	    -10.31725795	      1.91410025	     -1.27487491	     -7.12729183	      4.58979221	     -5.46779835	     -1.98027688	     13.31890556
      0.93600000	      1.14809770	      2.95761097	     -5.34177302	     -0.13088408	      1.00489559	      0.26817176	    -12.56608445	     -1.16263656	     -2.70833614	    -13.72108457	     14.09584401	     -1.83896335	      9.22084390	     17.22624160	      3.16943524	     -9.91732215	      1.80710512	     -1.37320359	     -7.31805331	      4.75811277	     -5.44947824	     -2.07067793	     13.34341593
      0.94016667	      1.19605709	      3.03941654	     -5.37015799	     -0.12487935	      1.00452219	      0.26784086	    -12.59272884	     -1.34165015	     -2.74122833	    -14.50030700	     14.11032482	     -1.71093716	      9.27499879	     17.08785606	      3.32888227	     -9.51050940	      1.63038717	     -1.50707529	     -7.52301198	      4.92822868	     -5.44708800	     -2.20037668	     13.36473023
      0.94433333	      1.21712129	      3.12550759	     -5.39909683	     -0.11884027	      1.00415162	      0.26749699	    -12.55900193	     -1.52671346	     -2.78196432	    -15.33969281	     14.06320314	     -1.58427079	      9.36367358	     16.97677964	      3.48967605	     -9.08375169	      1.40123192	     -1.68917677	     -7.77976284	      5.12090820	     -5.40432172	     -2.30913709	     13.37891530
      0.94850000	      1.28094783	      3.23020540	     -5.42507036	     -0.11279112	      1.00387001	      0.26715092	    -12.54743937	     -1.73641136	     -2.82889269	    -16.22179785	     14.00237650	     -1.45058818	      9.49170961	     16.81970543	      3.67495843	     -8.64804878	      1.12754682	     -1.91615894	     -8.07255657	      5.32975347	     -5.41555585	     -2.45928183	     13.38131646
      0.95266667	      1.32328248	      3.34189296	     -5.45195236	     -0.10670838	      1.00359029	      0.26680651	    -12.48466296	     -1.95219941	     -2.86492409	    -17.15764401	     13.89820477	     -1.35710127	      9.64302276	     16.68783188	      3.86305773	     -8.22055923	      0.80697930	     -2.16136325	     -8.36480403	      5.52687989	     -5.38632671	     -2.61740541	     13.37653162
      0.95683333	      1.35929765	      3.45527711	     -5.47014114	     -0.10062705	      1.00333241	      0.26643716	    -12.38345741	     -2.17100193	     -2.91632310	    -18.15058623	     13.74369902	     -1.24688031	      9.84975385	     16.57111349	      4.05426106	     -7.78149454	      0.43887088	     -2.45574269	     -8.71546021	      5.74748463	     -5.35703498	     -2.77305265	     13.36267198
      0.96100000	      1.41307230	      3.57628281	     -5.47761819	     -0.09454084	      1.00313384	      0.26605358	    -12.27839252	     -2.39821854	     -2.97383110	    -19.18235176	     13.53836571	     -1.13525895	     10.16497103	     16.44589751	      4.25636985	     -7.35128967	      0.02206903	     -2.78821336	     -9.11799257	      6.02943824	     -5.35684253	     -2.94516962	     13.34557303
      0.96516667	      1.46730501	      3.71248553	     -5.49720703	     -0.08843273	      1.00297259	      0.26567972	    -12.13349733	     -2.64758611	     -3.02521805	    -20.28455159	     13.29731093	     -1.04749604	     10.54779883	     16.31359609	      4.47034857	     -6.95921245	     -0.40235096	     -3.13016666	     -9.48821642	      6.31949309	     -5.34273614	     -3.13572143	     13.31071193
      0.96933333	      1.53809734	      3.84841169	     -5.51121868	     -0.08229785	      1.00286526	      0.26532120	    -11.99063427	     -2.89131985	     -3.05132779	    -21.40069830	     12.89174148	     -1.16586657	     15.21394231	     16.17018222	      4.67989511	     -6.63043279	     -0.85854501	     -3.46458100	     -9.77684725	      9.36975724	     -5.33989733	     -3.32882484	     13.24869607
